<?xml version="1.0" standalone="no"?>
<!DOCTYPE svg PUBLIC "-//W3C//DTD SVG 1.1//EN" "http://www.w3.org/Graphics/SVG/1.1/DTD/svg11.dtd" >
<svg>
<metadata>
Created by FontForge 20090914 at Thu Feb 23 23:12:59 2012
 By root
2003 Iconian Fonts www.iconian.com
</metadata>
<defs>
<font id="Dodger" horiz-adv-x="1051" >
  <font-face 
    font-family="Dodger"
    font-weight="400"
    font-stretch="normal"
    units-per-em="1000"
    panose-1="0 0 4 0 0 0 0 0 0 0"
    ascent="800"
    descent="-200"
    x-height="582"
    cap-height="582"
    bbox="-320 -253 1729 819"
    underline-thickness="20"
    underline-position="-190"
    unicode-range="U+0020-U+2122"
  />
<missing-glyph horiz-adv-x="500" 
d="M63 0v815h375v-815h-375zM125 63h250v690h-250v-690z" />
    <glyph glyph-name=".notdef" horiz-adv-x="500" 
d="M63 0v815h375v-815h-375zM125 63h250v690h-250v-690z" />
    <glyph glyph-name=".null" horiz-adv-x="0" 
 />
    <glyph glyph-name="nonmarkingreturn" horiz-adv-x="500" 
 />
    <glyph glyph-name="space" unicode=" " horiz-adv-x="600" 
 />
    <glyph glyph-name="space" unicode="&#xa0;" horiz-adv-x="600" 
 />
    <glyph glyph-name="exclam" unicode="!" horiz-adv-x="259" 
d="M150 0v154h-150v-154h150zM150 582h-150v-364h150v364z" />
    <glyph glyph-name="quotedbl" unicode="&#x22;" horiz-adv-x="481" 
d="M378 428q-24 -64 -55 -94q-33 -31 -95 -66v314h150v-154zM150 428q-24 -64 -55 -94q-33 -31 -95 -66v314h150v-154z" />
    <glyph glyph-name="FL0023h" unicode="#" horiz-adv-x="1065" 
d="M833 0v110h110v139h-110v82h110v139h-110v112h-150v-112h-435v112h-150v-112h-98v-138h98v-83h-98v-138h98v-111h150v110h435v-110h150zM683 331v-82h-435v82h435z" />
    <glyph glyph-name="dollar" unicode="$" 
d="M0 154v-154h394v-68h150v68h211q40 0 75 9.5t60 28.5t39.5 48t14.5 68v66q0 76 -46.5 107t-143.5 31h-754q2 -69 51 -102.5t137 -35.5h600v-66h-788zM944 428v154h-400v67h-150v-67h-205q-79 0 -134 -43q-55 -42 -55 -102v-9h944z" />
    <glyph glyph-name="FL0025h" unicode="%" horiz-adv-x="1321" 
d="M687 582h175l-349 -582h-175zM0 361v146q0 30 27 51q28 22 67 22h283q39 0 67 -22q28 -21 28 -51v-146q0 -30 -28 -51q-27 -21 -67 -21h-283q-39 0 -67 21q-27 21 -27 51zM397 409v56q-3 15 -20.5 26.5t-44.5 11.5h-194q-26 0 -44 -11t-19 -28v-56q0 -17 18 -28.5
t45 -11.5h197q23 0 43 12q19 12 19 29zM719 72v146q0 30 27 51q28 22 67 22h283q39 0 67 -22q28 -21 28 -51v-146q0 -30 -28 -51q-27 -21 -67 -21h-283q-39 0 -67 21q-27 21 -27 51zM1116 120v56q-3 15 -20.5 26.5t-44.5 11.5h-194q-26 0 -44 -11t-19 -28v-56
q0 -17 18 -28.5t45 -11.5h197q23 0 43 12q19 12 19 29z" />
    <glyph glyph-name="asterisk" unicode="&#x26;" horiz-adv-x="1135" 
d="M788 224h-634v-70h634v70zM154 362h878v-142h-88v-66q0 -39 -14.5 -67.5t-40 -48t-60 -29t-75.5 -9.5h-566q-41 0 -75.5 9.5t-60 29t-40 48t-14.5 67.5v66q5 59 98 66q-94 18 -98 76v66q0 38 14 67t39 48t59 28.5t74 9.5h571v-153h-601v-66z" />
    <glyph glyph-name="quotesingle" unicode="'" horiz-adv-x="259" 
d="M150 428q-24 -64 -55 -94q-33 -31 -95 -66v314h150v-154z" />
    <glyph glyph-name="parenleft" unicode="(" horiz-adv-x="455" 
d="M338 -14h-66q-89 55 -106 117q-16 60 -16 113v177q1 51 18 117q16 66 106 100h64v150h-149q-79 0 -134 -67q-55 -65 -55 -161v-466q0 -96 55 -163q55 -69 134 -69h149v152z" />
    <glyph glyph-name="parenright" unicode=")" horiz-adv-x="455" 
d="M0 -14h66q89 55 106 117q16 60 16 113v177q-2 51 -18 117t-106 100h-64v150h149q79 0 134 -67q55 -65 55 -161v-466q0 -96 -55 -163q-56 -69 -134 -69h-149v152z" />
    <glyph glyph-name="FL002Ah" unicode="*" horiz-adv-x="524" 
d="M221 597l-40 48h-176l129 -126l-130 -127h176l40 48l40 -48h176l-126 126l127 127h-176z" />
    <glyph glyph-name="plus" unicode="+" horiz-adv-x="633" 
d="M523 344v-117h-174v-118h-175v118h-174v117h174v118h175v-118h174z" />
    <glyph glyph-name="comma" unicode="," horiz-adv-x="259" 
d="M150 0q-24 -64 -55 -94q-33 -31 -95 -66v314h150v-154z" />
    <glyph glyph-name="hyphen" unicode="-" horiz-adv-x="589" 
d="M0 224v138h475v-138h-475z" />
    <glyph glyph-name="hyphen" unicode="&#x2010;" horiz-adv-x="589" 
d="M0 224v138h475v-138h-475z" />
    <glyph glyph-name="period" unicode="." horiz-adv-x="259" 
d="M150 0h-150v154h150v-154z" />
    <glyph glyph-name="slash" unicode="/" horiz-adv-x="639" 
d="M0 0l349 582h175l-349 -582h-175z" />
    <glyph glyph-name="zero" unicode="0" 
d="M0 145v292q0 60 55 102q55 43 134 43h566q78 0 134 -44q55 -42 55 -102v-291q0 -60 -55 -103q-56 -42 -134 -42h-566q-79 0 -134 42q-55 43 -55 103zM795 240v112q-7 30 -41.5 53t-88.5 23h-388q-53 0 -89 -22.5t-38 -55.5v-112q0 -16 9.5 -30.5t26.5 -25.5t40 -17.5
t50 -6.5h394q48 0 86 24q39 25 39 58zM544 218v137h-150v-137h150z" />
    <glyph glyph-name="one" unicode="1" horiz-adv-x="259" 
d="M149 0h-150v601h151z" />
    <glyph glyph-name="two" unicode="2" 
d="M944 154v-154h-944v220q0 76 46.5 107t143.5 31h754q-2 -69 -51 -102.5t-137 -35.5h-600v-66h788zM0 428v154h755q79 0 134 -43q55 -42 55 -102v-9h-944z" />
    <glyph glyph-name="three" unicode="3" 
d="M0 158v-158h755q78 0 134 42q55 43 55 103v217h-944v-138h794v-66h-794zM944 428v9q0 60 -55 102q-55 43 -134 43h-755v-154h944z" />
    <glyph glyph-name="four" unicode="4" 
d="M794 358v224h150v-582h-150v220h-794v138h794zM150 582v-154h-150v154h150z" />
    <glyph glyph-name="five" unicode="5" 
d="M0 154v-154h755q40 0 75 9.5t60 28.5t39.5 48t14.5 68v66q0 76 -46.5 107t-143.5 31h-754q2 -69 51 -102.5t137 -35.5h600v-66h-788zM944 428v154h-944v-154h944z" />
    <glyph glyph-name="six" unicode="6" 
d="M194 154v66h598v-66h-598zM948 424v158h-755q-79 0 -134 -43q-55 -42 -55 -102v-283q0 -78 46 -116t143 -38h565q40 0 75 9.5t60.5 29t40 48t14.5 67.5v66q0 76 -46.5 107t-143.5 31h-604q0 18 36 42t90 24h668z" />
    <glyph glyph-name="seven" unicode="7" 
d="M0 424v158h755q79 0 134 -43q55 -42 55 -102v-437h-150v344q0 16 -9.5 30.5t-26.5 25.5t-40 17.5t-50 6.5h-668z" />
    <glyph glyph-name="eight" unicode="8" 
d="M154 224v-70h634v70h-634zM788 362v66h-790q0 39 14.5 68t39.5 47.5t59.5 28t75.5 9.5h568q40 0 75 -9.5t60 -28t39.5 -47.5t14.5 -68v-66q-4 -58 -98 -76q94 -8 98 -66v-66q0 -39 -14.5 -67.5t-40 -48t-60.5 -29t-75 -9.5h-566q-41 0 -75.5 9.5t-60 29t-40 48
t-14.5 67.5v66q4 58 98 66q-94 18 -98 76h790z" />
    <glyph glyph-name="nine" unicode="9" 
d="M754 428v-66h-598v66h598zM0 158v-158h755q78 0 134 42q55 43 55 103v283q0 78 -46 116t-143 38h-566q-41 0 -75.5 -9.5t-59.5 -28.5t-39.5 -48t-14.5 -68v-66q0 -76 46.5 -107t143.5 -31h604q0 -18 -36 -42t-90 -24h-668z" />
    <glyph glyph-name="colon" unicode=":" horiz-adv-x="283" 
d="M175 0v145h-175v-145h175zM175 218v146h-175v-146h175z" />
    <glyph glyph-name="semicolon" unicode=";" horiz-adv-x="283" 
d="M175 218h-174v146h174v-146zM1 145h174v-145q0 -60 -51 -102q-49 -43 -124 -43h1v290z" />
    <glyph glyph-name="less" unicode="&#x3c;" horiz-adv-x="455" 
d="M338 158h-62q-27 0 -50 6.5t-40 17.5t-26.5 25.5t-9.5 30.5v112q1 16 11 30.5t27 25t39.5 16.5t49.5 6h61v154h-149q-79 0 -134 -43q-55 -42 -55 -102v-292q0 -60 55 -103q55 -42 134 -42h149v158z" />
    <glyph glyph-name="equal" unicode="=" horiz-adv-x="635" 
d="M0 288h522v122h-522v-122zM0 74h523v124h-523v-124z" />
    <glyph glyph-name="greater" unicode="&#x3e;" horiz-adv-x="455" 
d="M0 158h62q27 0 50 6.5t40 17.5t26.5 25.5t9.5 30.5v112q-1 16 -11 30.5t-27 25t-39.5 16.5t-49.5 6h-61v154h149q79 0 134 -43q55 -42 55 -102v-292q0 -60 -55 -103q-56 -42 -134 -42h-149v158z" />
    <glyph glyph-name="question" unicode="?" 
d="M788 428v-66h-788v-138h754q97 0 143.5 31t46.5 107v66q0 39 -14.5 68t-39.5 47.5t-60 28t-75 9.5h-755v-153h788zM150 0v154h-150v-154h150z" />
    <glyph glyph-name="at" unicode="@" horiz-adv-x="917" 
d="M810 124h-602q-55 0 -90 31q-36 31 -36 72v144q0 20 10 38t28 33q36 30 89 30h388q27 0 49 -8t39 -21.5t28 -31.5t14 -37v-129h83v195q0 56 -47 94q-47 40 -115 40h-486q-67 0 -115 -39q-47 -38 -47 -96v-278q0 -56 47 -97q49 -41 115 -41h649zM423 324h-110l-97 -150h60
l69 95h118l67 -95h60l-157 244h-60l-43 -64h73z" />
    <glyph glyph-name="FL0041h" unicode="A" 
d="M534 356l-53 72h-193l108 154h152l396 -582h-154l-166 224h-302l-169 -224h-153l244 356h290z" />
    <glyph glyph-name="B" unicode="B" 
d="M788 224h-638v-70h638v70zM788 362v66h-788v154h755q40 0 75 -9.5t60 -28.5t39.5 -48t14.5 -68v-66q-4 -58 -98 -76q94 -8 98 -66v-66q0 -39 -14.5 -67.5t-40 -48t-60.5 -29t-75 -9.5h-754v362h788z" />
    <glyph glyph-name="C" unicode="C" 
d="M944 158v-158h-755q-79 0 -134 42q-55 43 -55 103v292q0 60 55 102q55 43 134 43h755v-154h-667q-53 0 -89 -22.5t-38 -55.5v-112q0 -16 9.5 -30.5t26.5 -25.5t40 -17.5t50 -6.5h668z" />
    <glyph glyph-name="D" unicode="D" 
d="M795 240v112q-7 30 -41.5 53t-88.5 23h-665v154h755q78 0 134 -44q55 -42 55 -102v-291q0 -60 -55 -103q-56 -42 -134 -42h-755v364h150v-206h520q48 0 86 24q39 25 39 58z" />
    <glyph glyph-name="E" unicode="E" 
d="M944 158v-158h-755q-79 0 -134 42q-55 43 -55 103v217h944v-138h-794v-66h794zM0 428v9q0 60 55 102q55 43 134 43h755v-154h-944z" />
    <glyph glyph-name="F" unicode="F" 
d="M0 428v9q0 60 55 102q55 43 134 43h755v-154h-944zM150 0h-150v362h944v-138h-794v-224z" />
    <glyph glyph-name="G" unicode="G" 
d="M944 362v-217q0 -60 -55 -103q-56 -42 -134 -42h-566q-79 0 -134 42q-55 43 -55 103v292q0 60 55 102q55 43 134 43h755v-154h-667q-53 0 -89 -22.5t-38 -55.5v-112q0 -16 9.5 -30.5t26.5 -25.5t40 -17.5t50 -6.5h394q48 0 81 20t37 48h-498v136h654z" />
    <glyph glyph-name="H" unicode="H" 
d="M794 358v224h150v-582h-150v220h-644v-220h-150v582h150v-224h644z" />
    <glyph glyph-name="I" unicode="I" horiz-adv-x="259" 
d="M150 0h-150v582h150v-582z" />
    <glyph glyph-name="J" unicode="J" 
d="M795 240v342h149v-437q0 -60 -55 -103q-56 -42 -134 -42h-566q-79 0 -134 42q-55 43 -55 103v93h150q0 -16 9.5 -30.5t26.5 -25.5t40 -17.5t50 -6.5h394q48 0 86 24q39 25 39 58z" />
    <glyph glyph-name="K" unicode="K" 
d="M590 224h-440v-224h-150v582h150v-224h440l190 224h164l-242 -288l242 -294h-164z" />
    <glyph glyph-name="L" unicode="L" 
d="M944 158v-158h-755q-79 0 -134 42q-55 43 -55 103v437h150v-344q0 -16 9.5 -30.5t26.5 -25.5t40 -17.5t50 -6.5h668z" />
    <glyph glyph-name="M" unicode="M" 
d="M0 358v-358h150v358h-150zM794 0h150v582h-214l-254 -402l-270 402h-206v-154h152l272 -428h100l270 428v-428z" />
    <glyph glyph-name="N" unicode="N" 
d="M154 582h-154v-154h152l642 -428h150v582h-150v-424zM0 358v-358h150v358h-150z" />
    <glyph glyph-name="O" unicode="O" 
d="M0 145v292q0 60 55 102q55 43 134 43h566q78 0 134 -44q55 -42 55 -102v-291q0 -60 -55 -103q-56 -42 -134 -42h-566q-79 0 -134 42q-55 43 -55 103zM795 240v112q-7 30 -41.5 53t-88.5 23h-388q-53 0 -89 -22.5t-38 -55.5v-112q0 -16 9.5 -30.5t26.5 -25.5t40 -17.5
t50 -6.5h389q53 0 91 24q39 25 39 58z" />
    <glyph glyph-name="P" unicode="P" 
d="M0 428v154h755q40 0 75 -9.5t60 -28.5t39.5 -48t14.5 -68v-66q0 -76 -46.5 -107t-143.5 -31h-604v-224h-150v362h788v66h-788z" />
    <glyph glyph-name="Q" unicode="Q" 
d="M0 145v292q0 60 55 102q55 43 134 43h566q78 0 134 -44q55 -42 55 -102v-291q0 -60 -55 -103q-56 -42 -134 -42h-566q-79 0 -134 42q-55 43 -55 103zM544 160h136q41 0 76 22q39 25 39 58v112q-7 30 -41.5 53t-88.5 23h-388q-53 0 -89 -22.5t-38 -55.5v-112
q0 -16 9.5 -30.5t26.5 -25.5t40 -17.5t50 -6.5h116v141h152v-139z" />
    <glyph glyph-name="R" unicode="R" 
d="M590 224h-440v-224h-150v362h788v66h-788v154h755q40 0 75 -9.5t60 -28.5t39.5 -48t14.5 -68v-66q0 -76 -46.5 -107t-143.5 -31l190 -224h-164z" />
    <glyph glyph-name="S" unicode="S" 
d="M0 398v-40q2 -69 51 -102.5t137 -35.5h600v-66h-788v-154h754q40 0 75 9.5t60.5 29t40 48t14.5 67.5v66q0 76 -46.5 107t-143.5 31h-604v70h794v154h-755q-79 0 -134 -43q-55 -42 -55 -102v-39z" />
    <glyph glyph-name="T" unicode="T" 
d="M544 0h-150v428h-394v154h944v-154h-400v-428z" />
    <glyph glyph-name="U" unicode="U" 
d="M795 240v342h149v-437q0 -60 -55 -103q-56 -42 -134 -42h-566q-79 0 -134 42q-55 43 -55 103v437h150v-344q0 -16 9.5 -30.5t26.5 -25.5t40 -17.5t50 -6.5h394q48 0 86 24q39 25 39 58z" />
    <glyph glyph-name="FL0056h" unicode="V" 
d="M172 584l304 -428l292 428h176l-396 -584h-152l-396 586z" />
    <glyph glyph-name="W" unicode="W" 
d="M794 582h150v-582h-214l-254 402l-270 -402h-206v582h150v-428l274 428h100l270 -428v428z" />
    <glyph glyph-name="X" unicode="X" 
d="M354 224l-190 -224h-164l242 294l-54 64h402l190 224h164l-242 -288l242 -294h-164l-190 224h-236zM190 428h-64l-126 154h164l130 -154h-104z" />
    <glyph glyph-name="Y" unicode="Y" 
d="M544 0h-150v224h-246q-55 0 -101 31q-47 32 -47 107h788v220h156v-220q0 -76 -46.5 -107t-143.5 -31h-210v-224zM150 582v-154h-150v154h150z" />
    <glyph glyph-name="Z" unicode="Z" 
d="M944 154v-154h-944v220q0 76 46.5 107t143.5 31h754q-2 -69 -51 -102.5t-137 -35.5h-600v-66h788zM0 428v154h944v-154h-944z" />
    <glyph glyph-name="bracketleft" unicode="[" horiz-adv-x="455" 
d="M338 -14h-66q-89 55 -106 117q-16 60 -16 113v177q1 51 18 117q16 66 106 100h64v150h-149q-79 0 -134 -67q-55 -65 -55 -161v-466q0 -96 55 -163q55 -69 134 -69h149v152z" />
    <glyph glyph-name="backslash" unicode="\" horiz-adv-x="639" 
d="M524 0l-349 582h-175l349 -582h175z" />
    <glyph glyph-name="bracketright" unicode="]" horiz-adv-x="455" 
d="M0 -14h66q89 55 106 117q16 60 16 113v177q-2 51 -18 117t-106 100h-64v150h149q79 0 134 -67q55 -65 55 -161v-466q0 -96 -55 -163q-56 -69 -134 -69h-149v152z" />
    <glyph glyph-name="FL005Eh" unicode="^" horiz-adv-x="516" 
d="M260 392h176l-152 152h-124l-156 -152h176l40 48z" />
    <glyph glyph-name="underscore" unicode="_" horiz-adv-x="865" 
d="M-2 -188h874v117h-874v-117z" />
    <glyph glyph-name="FL0060h" unicode="`" horiz-adv-x="317" 
d="M72 662l-60 136h176l60 -136h-176z" />
    <glyph glyph-name="a" unicode="a" 
d="M534 356l-53 72h-193l108 154h152l396 -582h-154l-166 224h-302l-169 -224h-153l244 356h290z" />
    <glyph glyph-name="b" unicode="b" 
d="M788 224h-638v-70h638v70zM788 362v66h-788v154h755q40 0 75 -9.5t60 -28.5t39.5 -48t14.5 -68v-66q-4 -58 -98 -76q94 -8 98 -66v-66q0 -39 -14.5 -67.5t-40 -48t-60.5 -29t-75 -9.5h-754v362h788z" />
    <glyph glyph-name="c" unicode="c" 
d="M944 158v-158h-755q-79 0 -134 42q-55 43 -55 103v292q0 60 55 102q55 43 134 43h755v-154h-667q-53 0 -89 -22.5t-38 -55.5v-112q0 -16 9.5 -30.5t26.5 -25.5t40 -17.5t50 -6.5h668z" />
    <glyph glyph-name="d" unicode="d" 
d="M795 240v112q-7 30 -41.5 53t-88.5 23h-665v154h755q78 0 134 -44q55 -42 55 -102v-291q0 -60 -55 -103q-56 -42 -134 -42h-755v364h150v-206h520q48 0 86 24q39 25 39 58z" />
    <glyph glyph-name="e" unicode="e" 
d="M944 158v-158h-755q-79 0 -134 42q-55 43 -55 103v217h944v-138h-794v-66h794zM0 428v9q0 60 55 102q55 43 134 43h755v-154h-944z" />
    <glyph glyph-name="f" unicode="f" 
d="M0 428v9q0 60 55 102q55 43 134 43h755v-154h-944zM150 0h-150v362h944v-138h-794v-224z" />
    <glyph glyph-name="g" unicode="g" 
d="M944 362v-217q0 -60 -55 -103q-56 -42 -134 -42h-566q-79 0 -134 42q-55 43 -55 103v292q0 60 55 102q55 43 134 43h755v-154h-667q-53 0 -89 -22.5t-38 -55.5v-112q0 -16 9.5 -30.5t26.5 -25.5t40 -17.5t50 -6.5h394q48 0 81 20t37 48h-498v136h654z" />
    <glyph glyph-name="h" unicode="h" 
d="M794 358v224h150v-582h-150v220h-574v138h574zM150 0h-150v582h150v-582z" />
    <glyph glyph-name="i" unicode="i" horiz-adv-x="259" 
d="M150 582v-154h-150v154h150zM150 0h-150v364h150v-364z" />
    <glyph glyph-name="j" unicode="j" 
d="M795 240v342h149v-437q0 -60 -55 -103q-56 -42 -134 -42h-566q-79 0 -134 42q-55 43 -55 103v93h150q0 -16 9.5 -30.5t26.5 -25.5t40 -17.5t50 -6.5h394q48 0 86 24q39 25 39 58z" />
    <glyph glyph-name="k" unicode="k" 
d="M150 0h-150v582h150v-582zM590 224h-370v134h370l190 224h164l-242 -288l242 -294h-164z" />
    <glyph glyph-name="l" unicode="l" 
d="M944 158v-158h-755q-79 0 -134 42q-55 43 -55 103v437h150v-344q0 -16 9.5 -30.5t26.5 -25.5t40 -17.5t50 -6.5h668z" />
    <glyph glyph-name="m" unicode="m" 
d="M150 358h-150v-358h150v358zM794 0h150v582h-214l-254 -402l-270 402h-206v-154h152l272 -428h100l270 428v-428z" />
    <glyph glyph-name="n" unicode="n" 
d="M150 0h-150v582h755q78 0 134 -44q55 -42 55 -102v-436h-150v352q-6 30 -40.5 53t-88.5 23h-517z" />
    <glyph glyph-name="o" unicode="o" 
d="M0 145v292q0 60 55 102q55 43 134 43h566q78 0 134 -44q55 -42 55 -102v-291q0 -60 -55 -103q-56 -42 -134 -42h-566q-79 0 -134 42q-55 43 -55 103zM795 240v112q-7 30 -41.5 53t-88.5 23h-388q-53 0 -89 -22.5t-38 -55.5v-112q0 -16 9.5 -30.5t26.5 -25.5t40 -17.5
t50 -6.5h394q48 0 86 24q39 25 39 58z" />
    <glyph glyph-name="p" unicode="p" 
d="M0 428v154h755q40 0 75 -9.5t60 -28.5t39.5 -48t14.5 -68v-66q0 -76 -46.5 -107t-143.5 -31h-604v-224h-150v362h788v66h-788z" />
    <glyph glyph-name="q" unicode="q" 
d="M0 145v292q0 60 55 102q55 43 134 43h566q78 0 134 -44q55 -42 55 -102v-291q0 -60 -55 -103q-56 -42 -134 -42h-566q-79 0 -134 42q-55 43 -55 103zM544 160h136q41 0 76 22q39 25 39 58v112q-7 30 -41.5 53t-88.5 23h-388q-53 0 -89 -22.5t-38 -55.5v-112
q0 -16 9.5 -30.5t26.5 -25.5t40 -17.5t50 -6.5h116v141h152v-139z" />
    <glyph glyph-name="r" unicode="r" 
d="M590 224h-440v-224h-150v362h788v66h-788v154h755q40 0 75 -9.5t60 -28.5t39.5 -48t14.5 -68v-66q0 -76 -46.5 -107t-143.5 -31l190 -224h-164z" />
    <glyph glyph-name="s" unicode="s" 
d="M0 154h788v66h-600q-88 2 -137 35.5t-51 102.5h754q97 0 143.5 -31t46.5 -107v-66q0 -39 -14.5 -68t-39.5 -47.5t-60 -28t-75 -9.5h-755v153zM0 428v9q0 60 55 102q55 43 134 43h755v-154h-944z" />
    <glyph glyph-name="t" unicode="t" 
d="M544 0h-150v428h-394v154h944v-154h-400v-428z" />
    <glyph glyph-name="u" unicode="u" 
d="M795 240v342h149v-437q0 -60 -55 -103q-56 -42 -134 -42h-566q-79 0 -134 42q-55 43 -55 103v437h150v-344q0 -16 9.5 -30.5t26.5 -25.5t40 -17.5t50 -6.5h394q48 0 86 24q39 25 39 58z" />
    <glyph glyph-name="FL0076h" unicode="v" 
d="M172 584l304 -428l292 428h176l-396 -584h-152l-396 586z" />
    <glyph glyph-name="w" unicode="w" 
d="M794 582h150v-582h-214l-254 402l-270 -402h-206v582h150v-428l274 428h100l270 -428v428z" />
    <glyph glyph-name="x" unicode="x" 
d="M590 224h-162v134h162l190 224h164l-242 -288l242 -294h-164zM354 224l-190 -224h-164l242 294l-242 288h164l190 -224v-134z" />
    <glyph glyph-name="y" unicode="y" 
d="M156 582v-220h632v220h156v-220q0 -76 -46.5 -107t-143.5 -31h-604q-33 0 -60.5 7.5t-47.5 24t-31 42.5t-11 64v220h156zM394 0v160h150v-160h-150z" />
    <glyph glyph-name="z" unicode="z" 
d="M944 154v-154h-944v154l546 204h398l-554 -204h554zM0 428v154h944v-154h-944z" />
    <glyph glyph-name="braceleft" unicode="{" horiz-adv-x="388" 
d="M279 582h-104q-29 0 -102 -61t-73 -84v-292q0 -19 72 -82t103 -63h104v145q-30 3 -67 36q-38 34 -37 51v117q-1 19 39 53t65 34v146z" />
    <glyph glyph-name="FL007Ch" unicode="|" horiz-adv-x="259" 
d="M152 -83h-153v751h153v-751z" />
    <glyph glyph-name="braceright" unicode="}" horiz-adv-x="388" 
d="M0 582h104q29 0 102 -61t73 -84v-292q0 -19 -72 -82t-103 -63h-104v145q30 3 67 36q38 34 37 51v117q1 19 -39 53t-65 34v146z" />
    <glyph glyph-name="FL007Eh" unicode="~" horiz-adv-x="577" 
d="M228 268l-44 56l-48 -56h-136l135 152h113l49 -60l47 60h147l-128 -152h-135z" />
    <glyph glyph-name="FL20ACh" unicode="&#x20ac;" 
d="M172 0h596h180l-400 584h-152l-400 -584h176z" />
    <glyph glyph-name="FL201Ah" unicode="&#x201a;" horiz-adv-x="259" 
d="M150 0q-24 -64 -55 -94q-33 -31 -95 -66v314h150v-154z" />
    <glyph glyph-name="FL0192h" unicode="&#x192;" 
d="M0 428h944v154h-755l-189 -145v-9zM148 -8v232h796v138h-944v-362l-92 -172h148z" />
    <glyph glyph-name="FL201Eh" unicode="&#x201e;" horiz-adv-x="489" 
d="M150 0v154h-150v-314q63 35 95 66q31 30 55 94zM376 -1v154h-150v-314q63 35 95 66q31 30 55 94z" />
    <glyph glyph-name="FL2026h" unicode="&#x2026;" horiz-adv-x="911" 
d="M179 0v146h-175v-146h175zM289 0h175v146h-175v-146zM576 0h175v146h-175v-146z" />
    <glyph glyph-name="FL2021h" unicode="&#x2020;" horiz-adv-x="598" 
d="M0 332h169v-332h150v332h156v138h-156v112h-150v-112h-169v-138z" />
    <glyph glyph-name="FL2020h" unicode="&#x2021;" horiz-adv-x="598" 
d="M0 332h169v-83h-169v-138h169v-111h150v111h156v138h-156v83h156v138h-156v112h-150v-112h-169v-138z" />
    <glyph glyph-name="FL02C6h" unicode="&#x2c6;" horiz-adv-x="516" 
d="M267 660h176l-152 152h-124l-156 -152h176l40 48z" />
    <glyph glyph-name="FL2030h" unicode="&#x2030;" horiz-adv-x="1883" 
d="M687 582h175l-349 -582h-175zM0 361v146q0 30 27 51q28 22 67 22h283q39 0 67 -22q28 -21 28 -51v-146q0 -30 -28 -51q-27 -21 -67 -21h-283q-39 0 -67 21q-27 21 -27 51zM397 409v56q-3 15 -20.5 26.5t-44.5 11.5h-194q-26 0 -44 -11t-19 -28v-56q0 -17 18 -28.5
t45 -11.5h197q23 0 43 12q19 12 19 29zM719 72v146q0 30 27 51q28 22 67 22h283q39 0 67 -22q28 -21 28 -51v-146q0 -30 -28 -51q-27 -21 -67 -21h-283q-39 0 -67 21q-27 21 -27 51zM1116 120v56q-3 15 -20.5 26.5t-44.5 11.5h-194q-26 0 -44 -11t-19 -28v-56
q0 -17 18 -28.5t45 -11.5h197q23 0 43 12q19 12 19 29zM1257 73v146q0 30 27 51q28 22 67 22h283q39 0 67 -22q28 -21 28 -51v-146q0 -30 -28 -51q-27 -21 -67 -21h-283q-39 0 -67 21q-27 21 -27 51zM1654 121v56q-3 15 -20.5 26.5t-44.5 11.5h-194q-26 0 -44 -11t-19 -28
v-56q0 -17 18 -28.5t45 -11.5h197q23 0 43 12q19 12 19 29z" />
    <glyph glyph-name="FL0160h" unicode="&#x160;" 
d="M0 398v39q0 60 55 102q55 43 134 43h755v-154h-794v-70h604q96 0 143 -31t47 -107v-66q0 -39 -14.5 -67.5t-40 -48t-60 -29t-75.5 -9.5h-754v154h788v66h-600q-87 0 -136.5 34.5t-51.5 103.5v40zM512 812h176l-152 -152h-124l-156 152h176l40 -48z" />
    <glyph glyph-name="FL2039h" unicode="&#x2039;" horiz-adv-x="255" 
d="M160 248v-176l-152 152v124l152 156v-176l-48 -40z" />
    <glyph glyph-name="FL0152h" unicode="&#x152;" horiz-adv-x="1759" 
d="M1652 158h-794v66h794v138h-944v-204h-432q-27 0 -50 6.5t-40 17.5t-26.5 25.5t-9.5 30.5v112q2 33 38 55.5t89 22.5h1375v154h-1463q-79 0 -134 -43q-55 -42 -55 -102v-292q0 -60 55 -103q55 -42 134 -42h1463v158z" />
    <glyph glyph-name="FL017Dh" unicode="&#x17d;" 
d="M944 154h-788v66h600q87 2 136.5 35.5t51.5 102.5h-754q-96 0 -143 -31t-47 -107v-220h944v154zM944 428v154h-944v-154h944zM512 812l-40 -48l-40 48h-176l156 -152h124l152 152h-176z" />
    <glyph glyph-name="FL2018h" unicode="&#x2018;" horiz-adv-x="259" 
d="M0 428v154h150v-314q-63 35 -95 66q-31 30 -55 94z" />
    <glyph glyph-name="FL2019h" unicode="&#x2019;" horiz-adv-x="259" 
d="M150 428q-24 -64 -55 -94q-33 -31 -95 -66v314h150v-154z" />
    <glyph glyph-name="FL201Ch" unicode="&#x201c;" horiz-adv-x="481" 
d="M0 428v154h150v-314q-63 35 -95 66q-31 30 -55 94zM228 428v154h150v-314q-63 35 -95 66q-31 30 -55 94z" />
    <glyph glyph-name="FL201Dh" unicode="&#x201d;" horiz-adv-x="481" 
d="M378 428q-24 -64 -55 -94q-33 -31 -95 -66v314h150v-154zM150 428q-24 -64 -55 -94q-33 -31 -95 -66v314h150v-154z" />
    <glyph glyph-name="FL2022h" unicode="&#x2022;" 
d="M0 145q0 -60 55 -103q55 -42 134 -42h566q78 0 134 42q55 43 55 103v291q0 60 -55 102q-55 43 -134 43h-566q-80 0 -134 -42q-55 -42 -55 -102v-292z" />
    <glyph glyph-name="FL2013h" unicode="&#x2013;" horiz-adv-x="589" 
d="M0 224v138h475v-138h-475z" />
    <glyph glyph-name="FL2014h" unicode="&#x2014;" horiz-adv-x="678" 
d="M0 224v138h571v-138h-571z" />
    <glyph glyph-name="FL02DCh" unicode="&#x2dc;" horiz-adv-x="577" 
d="M235 661l-44 56l-48 -56h-136l135 152h113l49 -60l47 60h147l-128 -152h-135z" />
    <glyph glyph-name="FL2122h" unicode="&#x2122;" horiz-adv-x="1100" 
d="M272 585h200v77h-472v-77h197v-214h75v214zM605 550h-75v-179h75v179zM927 371h75v291h-107l-127 -201l-135 201h-103v-77h76l136 -214h50l135 214v-214z" />
    <glyph glyph-name="FL0161h" unicode="&#x161;" 
d="M0 154v-154h755q40 0 75 9.5t60 29t39.5 48t14.5 67.5v66q0 76 -47 107t-143 31h-754q2 -69 51.5 -102.5t136.5 -35.5h600v-66h-788zM0 428h944v154h-755q-79 0 -134 -43q-55 -42 -55 -102v-9zM512 812l-40 -48l-40 48h-176l156 -152h124l152 152h-176z" />
    <glyph glyph-name="FL203Ah" unicode="&#x203a;" horiz-adv-x="255" 
d="M8 248v-176l152 152v124l-152 156v-176l48 -40z" />
    <glyph glyph-name="FL0153h" unicode="&#x153;" horiz-adv-x="1759" 
d="M1652 158h-794v66h794v138h-944v-204h-432q-27 0 -50 6.5t-40 17.5t-26.5 25.5t-9.5 30.5v112q2 33 38 55.5t89 22.5h1375v154h-1463q-79 0 -134 -43q-55 -42 -55 -102v-292q0 -60 55 -103q55 -42 134 -42h1463v158z" />
    <glyph glyph-name="FL017Eh" unicode="&#x17e;" 
d="M944 154h-554l554 204h-398l-546 -204v-154h944v154zM944 428v154h-944v-154h944zM512 812l-40 -48l-40 48h-176l156 -152h124l152 152h-176z" />
    <glyph glyph-name="FL0178h" unicode="&#x178;" 
d="M544 0v224h210q96 0 143 31t47 107v220h-156v-220h-788q0 -75 47 -107q47 -31 101 -31h246v-224h150zM150 582h-150v-154h150v154zM407 654v146h-175v-146h175zM517 654h175v146h-175v-146z" />
    <glyph glyph-name="FL00A1h" unicode="&#xa1;" horiz-adv-x="259" 
d="M0 582v-154h150v154h-150zM0 0h150v364h-150v-364z" />
    <glyph glyph-name="FL00A2h" unicode="&#xa2;" 
d="M452 -75h150v75h342v158h-342v270h342v154h-342v65h-150v-65h-263q-79 0 -134 -43q-55 -42 -55 -102v-292q0 -60 55 -103q55 -42 134 -42h263v-75zM452 428v-270h-176q-27 0 -50 6.5t-40 17.5t-26.5 25.5t-9.5 30.5v112q2 33 38 55.5t89 22.5h175z" />
    <glyph glyph-name="FL00A3h" unicode="&#xa3;" horiz-adv-x="1092" 
d="M0 231h210v-91h-208v-138h941v156h-457q-51 0 -86 21.5t-40 51.5h211v138h-207q11 26 44 42.5t79 16.5h270v152h-358h-10q-71 0 -124 -41q-55 -42 -55 -102v-68h-210v-138z" />
    <glyph glyph-name="FL00A4h" unicode="&#xa4;" 
d="M469 469q-48 0 -88.5 -16.5t-69.5 -44.5l-147 174h-164l242 -288l-242 -294h164l146 172q29 -29 70 -45t89 -16q49 0 91 17.5t71 46.5l149 -175h164l-242 294l242 288h-164l-150 -176q-29 29 -71 46t-90 17zM385 290q0 32 25.5 54.5t62.5 22.5q18 0 34.5 -6t28.5 -16.5
t19 -24.5t7 -30q0 -32 -26 -54t-63 -22t-62.5 22t-25.5 54z" />
    <glyph glyph-name="FL00A5h" unicode="&#xa5;" 
d="M156 582h-156v-220q0 -38 11 -64t31 -42.5t47.5 -24t60.5 -7.5h604q97 0 143.5 31t46.5 107v220h-156v-220h-632v220zM284 11h110v-11h150v12h121v137h-121v11h-150v-11h-110v-138zM284 406h381v138h-381v-138z" />
    <glyph glyph-name="FL00A6h" unicode="&#xa6;" horiz-adv-x="259" 
d="M152 -83h-153v751h153v-751z" />
    <glyph glyph-name="FL00A7h" unicode="&#xa7;" 
d="M0 437v-79q2 -69 51 -102.5t137 -35.5h58q39 -20 95.5 -31t122.5 -11t122.5 11t95.5 31h106v-66h-788v-154h754q40 0 75 9.5t60.5 29t40 48t14.5 67.5v66q0 76 -46.5 107t-143.5 31h-65q-38 21 -97 33.5t-128 12.5q-70 0 -128.5 -12.5t-96.5 -33.5h-89v70h794v154h-755
q-79 0 -134 -43q-55 -42 -55 -102zM346 287q0 14 34.5 23.5t83.5 9.5t83.5 -9.5t34.5 -23.5t-34.5 -23t-83.5 -9t-83.5 9t-34.5 23z" />
    <glyph glyph-name="FL00A8h" unicode="&#xa8;" horiz-adv-x="548" 
d="M179 659v146h-175v-146h175zM289 659h175v146h-175v-146z" />
    <glyph glyph-name="FL00A9h" unicode="&#xa9;" horiz-adv-x="917" 
d="M810 124h-602q-55 0 -90 31q-36 31 -36 72v144q0 20 10 38t28 33q36 30 89 30h388q27 0 49 -8t39 -21.5t28 -31.5t14 -37v-129h83v195q0 56 -47 94q-47 40 -115 40h-486q-67 0 -115 -39q-47 -38 -47 -96v-278q0 -56 47 -97q49 -41 115 -41h649zM542 248h-232
q-23 0 -38.5 10t-15.5 22v46q1 12 16.5 21.5t37.5 9.5h289v61h-326q-35 0 -58 -16.5t-23 -41.5v-117q0 -24 23 -41.5t58 -17.5h326v64h-57z" />
    <glyph glyph-name="FL00AAh" unicode="&#xaa;" horiz-adv-x="466" 
d="M214 489h-110l-97 -150h60l69 95h118l67 -95h60l-157 244h-60l-43 -64h73z" />
    <glyph glyph-name="FL00ABh" unicode="&#xab;" horiz-adv-x="495" 
d="M160 248v-176l-152 152v124l152 156v-176l-48 -40zM400 248v-176l-152 152v124l152 156v-176l-48 -40z" />
    <glyph glyph-name="FL00ACh" unicode="&#xac;" horiz-adv-x="589" 
d="M0 224h324v-120h150v258h-474v-138z" />
    <glyph glyph-name="FL00ADh" unicode="&#xad;" horiz-adv-x="502" 
d="M0 224v138h381v-137z" />
    <glyph glyph-name="FL00AEh" unicode="&#xae;" horiz-adv-x="917" 
d="M810 124h-602q-55 0 -90 31q-36 31 -36 72v144q0 20 10 38t28 33q36 30 89 30h388q27 0 49 -8t39 -21.5t28 -31.5t14 -37v-129h83v195q0 56 -47 94q-47 40 -115 40h-486q-67 0 -115 -39q-47 -38 -47 -96v-278q0 -56 47 -97q49 -41 115 -41h649zM463 273l77 -93h66l-76 93
q38 0 57 13t19 43v27q0 31 -21.5 46.5t-54.5 15.5h-306v-62h320v-27h-320v-149h60v93h179z" />
    <glyph glyph-name="FL00AFh" unicode="&#xaf;" horiz-adv-x="865" 
d="M-4 702v117h874v-117h-874z" />
    <glyph glyph-name="FL00B0h" unicode="&#xb0;" horiz-adv-x="569" 
d="M-1 363v146q0 30 27 51q28 22 67 22h283q39 0 67 -22q28 -21 28 -51v-146q0 -30 -28 -51q-27 -21 -67 -21h-283q-39 0 -67 21q-27 21 -27 51zM396 411v56q-3 15 -20.5 26.5t-44.5 11.5h-194q-26 0 -44 -11t-19 -28v-56q0 -17 18 -28.5t45 -11.5h197q23 0 43 12
q19 12 19 29z" />
    <glyph glyph-name="FL00B1h" unicode="&#xb1;" horiz-adv-x="633" 
d="M523 430h-174v118h-175v-118h-174v-117h174v-118h175v118h174v117zM507 4v138h-487v-137z" />
    <glyph glyph-name="FL00B2h" unicode="&#xb2;" horiz-adv-x="559" 
d="M472 367v-77h-472v110q0 38 23.5 53.5t71.5 15.5h377q-2 -35 -26 -51.5t-68 -17.5h-300v-33h394zM0 504v77h377q41 0 67 -22q28 -21 28 -51v-4h-472z" />
    <glyph glyph-name="FL00B3h" unicode="&#xb3;" horiz-adv-x="573" 
d="M4 368v-79h377q40 0 67 21q28 21 28 51v109h-472v-69h397v-33h-397zM476 503v4q0 30 -28 51q-26 22 -67 22h-377v-77h472z" />
    <glyph glyph-name="FL00B4h" unicode="&#xb4;" horiz-adv-x="317" 
d="M188 662l60 136h-176l-60 -136h176z" />
    <glyph glyph-name="FL00B5h" unicode="&#xb5;" 
d="M795 240q0 -33 -39 -58q-38 -24 -86 -24h-394q-27 0 -50 6.5t-40 17.5t-26.5 25.5t-9.5 30.5v344h-150v-671h150v91q9 -2 18 -2h21h566q78 0 134 42q55 43 55 103v437h-149v-342z" />
    <glyph glyph-name="FL00B6h" unicode="&#xb6;" 
d="M352 364v-364h-164v224q-94 0 -141 31t-47 107v66q0 38 14 67t39 48t59 28.5t74 9.5h758v-153h-592v-64zM794 363h150v-363h-150v363z" />
    <glyph glyph-name="FL00B7h" unicode="&#xb7;" horiz-adv-x="283" 
d="M175 218h-175v146h175v-146z" />
    <glyph glyph-name="FL00B8h" unicode="&#xb8;" horiz-adv-x="317" 
d="M-320 -111h324v129h149v-267h-473v138z" />
    <glyph glyph-name="FL00B9h" unicode="&#xb9;" horiz-adv-x="160" 
d="M75 280h-75v300h76z" />
    <glyph glyph-name="FL00BAh" unicode="&#xba;" horiz-adv-x="569" 
d="M-1 363v146q0 30 27 51q28 22 67 22h283q39 0 67 -22q28 -21 28 -51v-146q0 -30 -28 -51q-27 -21 -67 -21h-283q-39 0 -67 21q-27 21 -27 51zM396 411v56q-3 15 -20.5 26.5t-44.5 11.5h-194q-26 0 -44 -11t-19 -28v-56q0 -17 18 -28.5t45 -11.5h197q23 0 43 12
q19 12 19 29z" />
    <glyph glyph-name="FL00BBh" unicode="&#xbb;" horiz-adv-x="495" 
d="M248 248v-176l152 152v124l-152 156v-176l48 -40zM8 248v-176l152 152v124l-152 156v-176l48 -40z" />
    <glyph glyph-name="FL00BCh" unicode="&#xbc;" 
d="M944 428v154h-755q-41 0 -75.5 -9.5t-59.5 -28.5t-39.5 -48t-14.5 -68v-66q0 -76 46.5 -107t143.5 -31h604v-224h150v362h-788v66h788z" />
    <glyph glyph-name="FL00BDh" unicode="&#xbd;" 
d="M0 154v-9q0 -60 55 -102q55 -43 134 -43h755v154h-944zM150 582h-150v-362h944v138h-794v224z" />
    <glyph glyph-name="FL00BEh" unicode="&#xbe;" 
d="M944 424v158h-755q-79 0 -134 -43q-55 -42 -55 -102v-437h150v344q0 16 9.5 30.5t26.5 25.5t40 17.5t50 6.5h668z" />
    <glyph glyph-name="FL00BFh" unicode="&#xbf;" 
d="M156 152v66h788v138h-754q-97 0 -143.5 -31t-46.5 -107v-66q0 -39 14.5 -68t39.5 -47.5t59.5 -28t75.5 -9.5h755v153h-788zM794 580v-154h150v154h-150z" />
    <glyph glyph-name="FL00C0h" unicode="&#xc0;" 
d="M524 356h-280l-244 -356h150l174 224h300l170 -224h150l-396 582h-152l-108 -154h183zM372 660h176l-60 136h-176z" />
    <glyph glyph-name="FL00C1h" unicode="&#xc1;" 
d="M524 356h-280l-244 -356h150l174 224h300l170 -224h150l-396 582h-152l-108 -154h183zM568 660l60 136h-176l-60 -136h176z" />
    <glyph glyph-name="FL00C2h" unicode="&#xc2;" 
d="M524 356h-280l-244 -356h150l174 224h300l170 -224h150l-396 582h-152l-108 -154h183zM512 660h176l-152 152h-124l-156 -152h176l40 48z" />
    <glyph glyph-name="FL00C3h" unicode="&#xc3;" 
d="M524 356h-280l-244 -356h150l174 224h300l170 -224h150l-396 582h-152l-108 -154h183zM456 660h135l128 152h-147l-47 -60l-49 60h-113l-135 -152h136l48 56z" />
    <glyph glyph-name="FL00C4h" unicode="&#xc4;" 
d="M524 356h-280l-244 -356h150l174 224h300l170 -224h150l-396 582h-152l-108 -154h183zM419 654v146h-175v-146h175zM529 654h175v146h-175v-146z" />
    <glyph glyph-name="FL00C5h" unicode="&#xc5;" 
d="M524 356h-280l-244 -356h150l174 224h300l170 -224h150l-396 582h-152l-108 -154h183zM563 654v146h-175v-146h175z" />
    <glyph glyph-name="FL00C6h" unicode="&#xc6;" horiz-adv-x="1819" 
d="M1669 158h-794v66h794v138h-944v-40l-177 260h-152l-108 -154h183l53 -72h-280l-244 -356h150l174 224h300l170 -224h875v158zM725 428h944v154h-755q-79 0 -134 -43q-55 -42 -55 -102v-9z" />
    <glyph glyph-name="FL00C7h" unicode="&#xc7;" 
d="M118 -115v-138h473v253h353v158h-668q-27 0 -50 6.5t-40 17.5t-26.5 25.5t-9.5 30.5v112q2 33 38 55.5t89 22.5h667v154h-755q-79 0 -134 -43q-55 -42 -55 -102v-292q0 -60 55 -103q55 -42 134 -42h253v-115h-324z" />
    <glyph glyph-name="FL00C8h" unicode="&#xc8;" 
d="M812 158h-142h-394h-126v66h794v138h-944v-217q0 -60 55 -103q55 -42 134 -42h566h189v158h-132zM0 428h224h53h667v154l-189 -1l-566 1q-79 0 -134 -43q-55 -42 -55 -102v-9zM412 660h176l-60 136h-176z" />
    <glyph glyph-name="FL00C9h" unicode="&#xc9;" 
d="M150 158v66h794v138h-944v-217q0 -60 55 -103q55 -42 134 -42h755v158h-794zM0 428h944v154h-755q-79 0 -134 -43q-55 -42 -55 -102v-9zM592 660l60 136h-176l-60 -136h176z" />
    <glyph glyph-name="FL00CAh" unicode="&#xca;" 
d="M276 158h-126v66h794v138h-944v-217q0 -60 55 -103q55 -42 134 -42h755v158h-668zM0 428h944v154h-755q-79 0 -134 -43q-55 -42 -55 -102v-9zM524 661h176l-152 152h-124l-156 -152h176l40 48z" />
    <glyph glyph-name="FL00CBh" unicode="&#xcb;" 
d="M150 158v66h794v138h-944v-217q0 -60 55 -103q55 -42 134 -42h755v158h-794zM0 428h944v154h-755q-79 0 -134 -43q-55 -42 -55 -102v-9zM447 653v146h-175v-146h175zM553 653h175v146h-175v-146z" />
    <glyph glyph-name="FL00CCh" unicode="&#xcc;" horiz-adv-x="259" 
d="M150 0v582h-150v-582h150zM-20 660h176l-60 136h-176z" />
    <glyph glyph-name="FL00CDh" unicode="&#xcd;" horiz-adv-x="259" 
d="M150 0v582h-150v-582h150zM160 660l60 136h-176l-60 -136h176z" />
    <glyph glyph-name="FL00CEh" unicode="&#xce;" horiz-adv-x="283" 
d="M186 0v582h-150v-582h150zM152 660h176l-152 152h-124l-156 -152h176l40 48z" />
    <glyph glyph-name="FL00CFh" unicode="&#xcf;" horiz-adv-x="279" 
d="M178 0v582h-150v-582h150zM331 654v146h-175v-146h175zM-120 654h175v146h-175v-146z" />
    <glyph glyph-name="FL00D0h" unicode="&#xd0;" horiz-adv-x="1219" 
d="M2 226h166v-226h755q78 0 134 42q55 43 55 103v291q0 60 -55 102q-56 44 -134 44h-755v-154h665q54 0 88.5 -23t41.5 -53v-112q0 -33 -39 -58q-38 -24 -86 -24h-520v68h159v138h-475v-138z" />
    <glyph glyph-name="FL00D1h" unicode="&#xd1;" 
d="M154 582l640 -424v424h150v-582h-150l-642 428h-152v154h154zM150 358v-358h-150v358h150zM456 660l-44 56l-48 -56h-136l135 152h113l49 -60l47 60h147l-128 -152h-135z" />
    <glyph glyph-name="FL00D2h" unicode="&#xd2;" 
d="M0 145q0 -60 55 -103q55 -42 134 -42h566q78 0 134 42q55 43 55 103v291q0 60 -55 102q-55 43 -134 43h-571q-75 0 -129 -42q-55 -42 -55 -102v-292zM544 160h-274q-52 0 -86 23t-34 55v112q1 16 11 30.5t27 25t39.5 16.5t49.5 6h388q54 0 88.5 -23t41.5 -53v-112
q0 -33 -39 -58q-38 -24 -86 -24zM400 660h176l-60 136h-176z" />
    <glyph glyph-name="FL00D3h" unicode="&#xd3;" 
d="M0 145q0 -60 55 -103q55 -42 134 -42h566q78 0 134 42q55 43 55 103v291q0 60 -55 102q-55 43 -134 43h-566q-80 0 -134 -42q-55 -42 -55 -102v-292zM276 158q-27 0 -50 6.5t-40 17.5t-26.5 25.5t-9.5 30.5v112q1 16 11 30.5t27 25t39.5 16.5t49.5 6h388q54 0 88.5 -23
t41.5 -53v-112q0 -33 -39 -58q-38 -24 -86 -24h-394zM548 660l60 136h-176l-60 -136h176z" />
    <glyph glyph-name="FL00D4h" unicode="&#xd4;" 
d="M0 145q0 -60 55 -103q55 -42 134 -42h566q78 0 134 42q55 43 55 103v291q0 60 -55 102q-55 43 -134 43h-571q-75 0 -129 -42q-55 -42 -55 -102v-292zM795 240q0 -33 -39 -58q-38 -24 -91 -24h-389q-27 0 -50 6.5t-40 17.5t-26.5 25.5t-9.5 30.5v112q1 16 11 30.5t27 25
t39.5 16.5t49.5 6h388q54 0 88.5 -23t41.5 -53v-112zM512 660h176l-152 152h-124l-156 -152h176l40 48z" />
    <glyph glyph-name="FL00D5h" unicode="&#xd5;" 
d="M0 145q0 -60 55 -103q55 -42 134 -42h566q78 0 134 42q55 43 55 103v291q0 60 -55 102q-55 43 -134 43h-571q-75 0 -129 -42q-55 -42 -55 -102v-292zM276 158q-27 0 -50 6.5t-40 17.5t-26.5 25.5t-9.5 30.5v112q1 16 11 30.5t27 25t39.5 16.5t49.5 6h388q54 0 88.5 -23
t41.5 -53v-112q0 -33 -39 -58q-38 -24 -86 -24h-394zM456 660h135l128 152h-147l-47 -60l-49 60h-113l-135 -152h136l48 56z" />
    <glyph glyph-name="FL00D6h" unicode="&#xd6;" 
d="M0 145q0 -60 55 -103q55 -42 134 -42h566q78 0 134 42q55 43 55 103v291q0 60 -55 102q-55 43 -134 43h-566q-80 0 -134 -42q-55 -42 -55 -102v-292zM795 240q0 -33 -39 -58q-38 -24 -91 -24h-389q-27 0 -50 6.5t-40 17.5t-26.5 25.5t-9.5 30.5v112q1 16 11 30.5t27 25
t39.5 16.5t49.5 6h388q54 0 88.5 -23t41.5 -53v-112zM419 654v146h-175v-146h175zM529 654h175v146h-175v-146z" />
    <glyph glyph-name="FL00D7h" unicode="&#xd7;" horiz-adv-x="658" 
d="M358 120l106 -120h140l-151 176l151 173h-140l-106 -120h-117l-105 120h-140l151 -173l-151 -176h140l105 120h117z" />
    <glyph glyph-name="FL00D8h" unicode="&#xd8;" 
d="M206 -2h549q80 3 134 44q55 43 55 103v291q0 60 -55 102q-56 44 -134 44h-566q-79 0 -134 -43q-55 -42 -55 -102v-292q0 -60 55 -103q55 -42 134 -42h18zM795 240q0 -33 -39 -58q-38 -24 -86 -24h-193l162 270h26q54 0 88.5 -23t41.5 -53v-112zM150 238v112q2 33 38 55.5
t89 22.5h187l-162 -270h-26q-27 0 -50 6.5t-40 17.5t-26.5 25.5t-9.5 30.5z" />
    <glyph glyph-name="FL00D9h" unicode="&#xd9;" 
d="M795 240q0 -33 -39 -58q-38 -24 -86 -24h-394q-27 0 -50 6.5t-40 17.5t-26.5 25.5t-9.5 30.5v344h-150v-437q0 -60 55 -103q55 -42 134 -42h566q78 0 134 42q55 43 55 103v437h-150zM400 660h176l-60 136h-176z" />
    <glyph glyph-name="FL00DAh" unicode="&#xda;" 
d="M795 240q0 -33 -39 -58q-38 -24 -86 -24h-394q-27 0 -50 6.5t-40 17.5t-26.5 25.5t-9.5 30.5v344h-150v-437q0 -60 55 -103q55 -42 134 -42h566q78 0 134 42q55 43 55 103v437h-150zM548 660l60 136h-176l-60 -136h176z" />
    <glyph glyph-name="FL00DBh" unicode="&#xdb;" 
d="M795 240q0 -33 -39 -58q-38 -24 -86 -24h-394q-27 0 -50 6.5t-40 17.5t-26.5 25.5t-9.5 30.5v344h-150v-437q0 -60 55 -103q55 -42 134 -42h566q78 0 134 42q55 43 55 103v437h-150zM512 660h176l-152 152h-124l-156 -152h176l40 48z" />
    <glyph glyph-name="FL00DCh" unicode="&#xdc;" 
d="M795 240q0 -33 -39 -58q-38 -24 -86 -24h-394q-27 0 -50 6.5t-40 17.5t-26.5 25.5t-9.5 30.5v344h-150v-437q0 -60 55 -103q55 -42 134 -42h566q78 0 134 42q55 43 55 103v437h-150zM415 654v146h-175v-146h175zM525 654h175v146h-175v-146z" />
    <glyph glyph-name="FL00DDh" unicode="&#xdd;" 
d="M544 0v224h210q96 0 143 31t47 107v220h-156v-220h-788q0 -75 47 -107q47 -31 101 -31h246v-224h150zM150 582h-150v-154h150v154zM548 660l60 136h-176l-60 -136h176z" />
    <glyph glyph-name="FL00DEh" unicode="&#xde;" 
d="M944 154v-154h-755q-41 0 -75.5 9.5t-59.5 28.5t-39.5 48t-14.5 68v66q0 76 46.5 107t143.5 31h604v224h150v-362h-788v-66h788z" />
    <glyph glyph-name="FL00DFh" unicode="&#xdf;" 
d="M788 224v-70h-556v-154h522q41 0 75.5 9.5t60 29t40 48t14.5 67.5v66q-5 59 -98 66q94 18 98 76v66q0 38 -14 67t-39 48t-59 28.5t-74 9.5h-616l-142 -153h788v-66h-556v-138h556zM148 364h-148v-520h148v520z" />
    <glyph glyph-name="FL00E0h" unicode="&#xe0;" 
d="M524 356h-280l-244 -356h150l174 224h300l170 -224h150l-396 582h-152l-108 -154h183zM372 660h176l-60 136h-176z" />
    <glyph glyph-name="FL00E1h" unicode="&#xe1;" 
d="M524 356h-280l-244 -356h150l174 224h300l170 -224h150l-396 582h-152l-108 -154h183zM568 660l60 136h-176l-60 -136h176z" />
    <glyph glyph-name="FL00E2h" unicode="&#xe2;" 
d="M524 356h-280l-244 -356h150l174 224h300l170 -224h150l-396 582h-152l-108 -154h183zM512 660h176l-152 152h-124l-156 -152h176l40 48z" />
    <glyph glyph-name="FL00E3h" unicode="&#xe3;" 
d="M524 356h-280l-244 -356h150l174 224h300l170 -224h150l-396 582h-152l-108 -154h183zM456 660h135l128 152h-147l-47 -60l-49 60h-113l-135 -152h136l48 56z" />
    <glyph glyph-name="FL00E4h" unicode="&#xe4;" 
d="M524 356h-280l-244 -356h150l174 224h300l170 -224h150l-396 582h-152l-108 -154h183zM419 654v146h-175v-146h175zM529 654h175v146h-175v-146z" />
    <glyph glyph-name="FL00E5h" unicode="&#xe5;" 
d="M524 356h-280l-244 -356h150l174 224h300l170 -224h150l-396 582h-152l-108 -154h183zM563 654v146h-175v-146h175z" />
    <glyph glyph-name="FL00E6h" unicode="&#xe6;" horiz-adv-x="1819" 
d="M1669 158h-794v66h794v138h-944v-40l-177 260h-152l-108 -154h183l53 -72h-280l-244 -356h150l174 224h300l170 -224h875v158zM725 428h944v154h-755q-79 0 -134 -43q-55 -42 -55 -102v-9z" />
    <glyph glyph-name="FL00E7h" unicode="&#xe7;" 
d="M118 -115v-138h473v253h353v158h-668q-27 0 -50 6.5t-40 17.5t-26.5 25.5t-9.5 30.5v112q2 33 38 55.5t89 22.5h667v154h-755q-79 0 -134 -43q-55 -42 -55 -102v-292q0 -60 55 -103q55 -42 134 -42h253v-115h-324z" />
    <glyph glyph-name="FL00E8h" unicode="&#xe8;" 
d="M812 158h-142h-394h-126v66h794v138h-944v-217q0 -60 55 -103q55 -42 134 -42h566h189v158h-132zM0 428h224h53h667v154l-189 -1l-566 1q-79 0 -134 -43q-55 -42 -55 -102v-9zM412 660h176l-60 136h-176z" />
    <glyph glyph-name="FL00E9h" unicode="&#xe9;" 
d="M150 158v66h794v138h-944v-217q0 -60 55 -103q55 -42 134 -42h755v158h-794zM0 428h944v154h-755q-79 0 -134 -43q-55 -42 -55 -102v-9zM592 660l60 136h-176l-60 -136h176z" />
    <glyph glyph-name="FL00EAh" unicode="&#xea;" 
d="M276 158h-126v66h794v138h-944v-217q0 -60 55 -103q55 -42 134 -42h755v158h-668zM0 428h944v154h-755q-79 0 -134 -43q-55 -42 -55 -102v-9zM524 661h176l-152 152h-124l-156 -152h176l40 48z" />
    <glyph glyph-name="FL00EBh" unicode="&#xeb;" 
d="M150 158v66h794v138h-944v-217q0 -60 55 -103q55 -42 134 -42h755v158h-794zM0 428h944v154h-755q-79 0 -134 -43q-55 -42 -55 -102v-9zM447 653v146h-175v-146h175zM553 653h175v146h-175v-146z" />
    <glyph glyph-name="FL00ECh" unicode="&#xec;" horiz-adv-x="259" 
d="M150 582h-150v-154h150v154zM150 0v364h-150v-364h150zM-20 660h176l-60 136h-176z" />
    <glyph glyph-name="FL00EDh" unicode="&#xed;" horiz-adv-x="259" 
d="M150 582h-150v-154h150v154zM150 0v364h-150v-364h150zM160 660l60 136h-176l-60 -136h176z" />
    <glyph glyph-name="FL00EEh" unicode="&#xee;" horiz-adv-x="279" 
d="M186 582h-150v-154h150v154zM182 0v364h-150v-364h150zM152 660h176l-152 152h-124l-156 -152h176l40 48z" />
    <glyph glyph-name="FL00EFh" unicode="&#xef;" horiz-adv-x="279" 
d="M178 426v156h-150v-156h150zM331 654v146h-175v-146h175zM-120 654h175v146h-175v-146zM178 0v364h-150v-364h150z" />
    <glyph glyph-name="FL00F0h" unicode="&#xf0;" 
d="M758 154v66h-598v-66h598zM4 424v158h755q79 0 134 -43q55 -42 55 -102v-283q0 -78 -46 -116t-143 -38h-565q-41 0 -75.5 9.5t-60 29t-40 48t-14.5 67.5v66q0 76 46.5 107t143.5 31h604q0 18 -36 42t-90 24h-668z" />
    <glyph glyph-name="FL00F1h" unicode="&#xf1;" 
d="M150 0v428h515q54 0 88.5 -23t41.5 -53v-352h149v436q0 60 -55 102q-55 43 -134 43h-755v-581h150zM456 660h135l128 152h-147l-47 -60l-49 60h-113l-135 -152h136l48 56z" />
    <glyph glyph-name="FL00F2h" unicode="&#xf2;" 
d="M0 145q0 -60 55 -103q55 -42 134 -42h566q78 0 134 42q55 43 55 103v291q0 60 -55 102q-55 43 -134 43h-571q-75 0 -129 -42q-55 -42 -55 -102v-292zM544 160h-274q-52 0 -86 23t-34 55v112q1 16 11 30.5t27 25t39.5 16.5t49.5 6h388q54 0 88.5 -23t41.5 -53v-112
q0 -33 -39 -58q-38 -24 -86 -24zM400 660h176l-60 136h-176z" />
    <glyph glyph-name="FL00F3h" unicode="&#xf3;" 
d="M0 145q0 -60 55 -103q55 -42 134 -42h566q78 0 134 42q55 43 55 103v291q0 60 -55 102q-55 43 -134 43h-566q-80 0 -134 -42q-55 -42 -55 -102v-292zM276 158q-27 0 -50 6.5t-40 17.5t-26.5 25.5t-9.5 30.5v112q1 16 11 30.5t27 25t39.5 16.5t49.5 6h388q54 0 88.5 -23
t41.5 -53v-112q0 -33 -39 -58q-38 -24 -86 -24h-394zM548 660l60 136h-176l-60 -136h176z" />
    <glyph glyph-name="FL00F4h" unicode="&#xf4;" 
d="M0 145q0 -60 55 -103q55 -42 134 -42h566q78 0 134 42q55 43 55 103v291q0 60 -55 102q-55 43 -134 43h-571q-75 0 -129 -42q-55 -42 -55 -102v-292zM795 240q0 -33 -39 -58q-38 -24 -91 -24h-389q-27 0 -50 6.5t-40 17.5t-26.5 25.5t-9.5 30.5v112q1 16 11 30.5t27 25
t39.5 16.5t49.5 6h388q54 0 88.5 -23t41.5 -53v-112zM512 660h176l-152 152h-124l-156 -152h176l40 48z" />
    <glyph glyph-name="FL00F5h" unicode="&#xf5;" 
d="M0 145q0 -60 55 -103q55 -42 134 -42h566q78 0 134 42q55 43 55 103v291q0 60 -55 102q-55 43 -134 43h-571q-75 0 -129 -42q-55 -42 -55 -102v-292zM276 158q-27 0 -50 6.5t-40 17.5t-26.5 25.5t-9.5 30.5v112q1 16 11 30.5t27 25t39.5 16.5t49.5 6h388q54 0 88.5 -23
t41.5 -53v-112q0 -33 -39 -58q-38 -24 -86 -24h-394zM456 660h135l128 152h-147l-47 -60l-49 60h-113l-135 -152h136l48 56z" />
    <glyph glyph-name="FL00F6h" unicode="&#xf6;" 
d="M0 145q0 -60 55 -103q55 -42 134 -42h566q78 0 134 42q55 43 55 103v291q0 60 -55 102q-55 43 -134 43h-566q-80 0 -134 -42q-55 -42 -55 -102v-292zM795 240q0 -33 -39 -58q-38 -24 -91 -24h-389q-27 0 -50 6.5t-40 17.5t-26.5 25.5t-9.5 30.5v112q1 16 11 30.5t27 25
t39.5 16.5t49.5 6h388q54 0 88.5 -23t41.5 -53v-112zM419 654v146h-175v-146h175zM529 654h175v146h-175v-146z" />
    <glyph glyph-name="FL00F7h" unicode="&#xf7;" horiz-adv-x="589" 
d="M475 224v138h-475v-138h475zM330 430v146h-175v-146h175zM330 3v146h-175v-146h175z" />
    <glyph glyph-name="FL00F8h" unicode="&#xf8;" 
d="M206 -2h549q80 3 134 44q55 43 55 103v291q0 60 -55 102q-56 44 -134 44h-566q-79 0 -134 -43q-55 -42 -55 -102v-292q0 -60 55 -103q55 -42 134 -42h18zM795 240q0 -33 -39 -58q-38 -24 -86 -24h-193l162 270h26q54 0 88.5 -23t41.5 -53v-112zM150 238v112q2 33 38 55.5
t89 22.5h187l-162 -270h-26q-27 0 -50 6.5t-40 17.5t-26.5 25.5t-9.5 30.5z" />
    <glyph glyph-name="FL00F9h" unicode="&#xf9;" 
d="M795 240q0 -33 -39 -58q-38 -24 -86 -24h-394q-27 0 -50 6.5t-40 17.5t-26.5 25.5t-9.5 30.5v344h-150v-437q0 -60 55 -103q55 -42 134 -42h566q78 0 134 42q55 43 55 103v437h-150zM400 660h176l-60 136h-176z" />
    <glyph glyph-name="V" unicode="&#xfa;" 
d="M795 240q0 -33 -39 -58q-38 -24 -86 -24h-394q-27 0 -50 6.5t-40 17.5t-26.5 25.5t-9.5 30.5v344h-150v-437q0 -60 55 -103q55 -42 134 -42h566q78 0 134 42q55 43 55 103v437h-150zM548 660l60 136h-176l-60 -136h176z" />
    <glyph glyph-name="FL00FBh" unicode="&#xfb;" 
d="M795 240q0 -33 -39 -58q-38 -24 -86 -24h-394q-27 0 -50 6.5t-40 17.5t-26.5 25.5t-9.5 30.5v344h-150v-437q0 -60 55 -103q55 -42 134 -42h566q78 0 134 42q55 43 55 103v437h-150zM512 660h176l-152 152h-124l-156 -152h176l40 48z" />
    <glyph glyph-name="FL00FCh" unicode="&#xfc;" 
d="M795 240q0 -33 -39 -58q-38 -24 -86 -24h-394q-27 0 -50 6.5t-40 17.5t-26.5 25.5t-9.5 30.5v344h-150v-437q0 -60 55 -103q55 -42 134 -42h566q78 0 134 42q55 43 55 103v437h-150zM415 654v146h-175v-146h175zM525 654h175v146h-175v-146z" />
    <glyph glyph-name="FL00FDh" unicode="&#xfd;" 
d="M156 582h-156v-220q0 -76 47 -107t143 -31h564q96 0 143 31t47 107v220h-156v-220h-632v220zM544 0v160h-150v-160h150zM548 660l60 136h-176l-60 -136h176z" />
    <glyph glyph-name="FL00FEh" unicode="&#xfe;" 
d="M0 154v-154h755q40 0 75 9.5t60 28.5t39.5 48t14.5 68v66q0 76 -46.5 107t-143.5 31h-604v224h-150v-362h788v-66h-788z" />
    <glyph glyph-name="FL00FFh" unicode="&#xff;" 
d="M411 654v146h-175v-146h175zM525 654h175v146h-175v-146zM156 582h-156v-220q0 -75 47 -107q47 -31 103 -31h604q96 0 143 31t47 107v220h-156v-220h-632v220zM544 0v160h-150v-160h150z" />
    <glyph glyph-name="oacute" horiz-adv-x="280" 
 />
    <glyph glyph-name=".null" horiz-adv-x="0" 
 />
    </font>
</defs>
</svg>
